#!OML:ASF H:\Terrain\Patient Classification 1\Walking\liu\liu.ASF
:FULLY-SPECIFIED
:DEGREES
65
root -2.95856 16.6008 -36.3827 1.23337 -0.552896 -2.1458
lowerback 11.7039 2.30357 -1.86394
upperback -2.5675 2.90715 1.18848
thorax -9.49902 1.54575 1.74865
lowerneck -3.56584 -3.87261 -6.72276
upperneck 4.0721 -5.12882 6.46662
head 2.33177 -2.51162 3.14273
rclavicle -3.57269e-015 1.54058e-015
rhumerus -32.3266 2.66504 -80.5452
rradius 30.0861
rwrist 2.89774
rhand -20.9781 -26.8362
rfingers 7.12502
rthumb 5.3955 -56.7475
lclavicle -3.57269e-015 1.54058e-015
lhumerus -26.0741 -4.72012 89.8511
lradius 24.9307
lwrist -30.5819
lhand -28.7455 30.0282
lfingers 7.12502
lthumb -2.1059 59.9976
rfemur -19.7797 -4.81581 14.0052
rtibia 45.7803
rfoot -24.2724 1.93081
rtoes -4.20025
lfemur -18.2335 4.97013 -8.82586
ltibia 42.0163
lfoot -19.9477 0.676842
ltoes -7.11805
66
root -2.95474 16.5967 -36.3786 1.27177 -0.495383 -2.10629
lowerback 11.6185 2.27986 -1.87042
upperback -2.58841 2.87525 1.1814
thorax -9.47039 1.53075 1.75369
lowerneck -3.49386 -3.85987 -6.74792
upperneck 4.09408 -5.11508 6.46033
head 2.32547 -2.50654 3.14689
rclavicle -9.36928e-015 -5.7896e-015
rhumerus -32.3414 2.74978 -80.5554
rradius 30.1071
rwrist 2.86726
rhand -20.947 -26.9569
rfingers 7.12502
rthumb 5.42549 -56.8675
lclavicle -9.36928e-015 -5.7896e-015
lhumerus -26.0965 -4.73753 89.849
lradius 24.9204
lwrist -30.5589
lhand -28.7643 29.9444
lfingers 7.12502
lthumb -2.1241 59.9136
rfemur -19.8159 -4.91331 13.9447
rtibia 45.8383
rfoot -24.3308 1.91841
rtoes -4.25515
lfemur -18.3242 5.01556 -8.88301
ltibia 42.1283
lfoot -20.0157 0.570796
ltoes -6.9234
67
root -2.95253 16.5938 -36.3723 1.29505 -0.482461 -2.13772
lowerback 11.5147 2.27457 -1.83574
upperback -2.58665 2.87633 1.19659
thorax -9.40697 1.52969 1.75379
lowerneck -3.46471 -3.86814 -6.74529
upperneck 4.11103 -5.12775 6.44307
head 2.32589 -2.51369 3.14031
rclavicle 5.06167e-014 1.45113e-014
rhumerus -32.29 2.79076 -80.5492
rradius 30.076
rwrist 2.835
rhand -20.8751 -27.0392
rfingers 7.12502
rthumb 5.49495 -56.948
lclavicle 5.06167e-014 1.45113e-014
lhumerus -26.0745 -4.7181 89.8304
lradius 24.8966
lwrist -30.6403
lhand -28.7898 30.0074
lfingers 7.12502
lthumb -2.14872 59.9763
rfemur -19.8448 -4.89624 13.9725
rtibia 45.9029
rfoot -24.38 1.87803
rtoes -4.25245
lfemur -18.3915 5.12586 -8.85499
ltibia 42.2173
lfoot -20.0653 0.480611
ltoes -6.94413
68
root -2.95018 16.5905 -36.3665 1.34469 -0.464722 -2.14241
lowerback 11.3806 2.2646 -1.81785
upperback -2.6092 2.86796 1.19839
thorax -9.35221 1.52493 1.75147
lowerneck -3.38251 -3.86087 -6.75681
upperneck 4.14494 -5.12308 6.43464
head 2.32176 -2.51312 3.14093
rclavicle -1.18304e-014 -3.41661e-015
rhumerus -32.2779 2.8451 -80.5592
rradius 30.0636
rwrist 2.80028
rhand -20.8089 -27.064
rfingers 7.12502
rthumb 5.55888 -56.9711
lclavicle -1.18304e-014 -3.41661e-015
lhumerus -26.0693 -4.6888 89.808
lradius 24.8418
lwrist -30.6879
lhand -28.8197 29.7691
lfingers 7.12502
lthumb -2.17755 59.7377
rfemur -19.9181 -4.91975 13.9723
rtibia 45.9763
rfoot -24.4084 1.85398
rtoes -4.34921
lfemur -18.4783 5.18868 -8.85346
ltibia 42.3123
lfoot -20.127 0.387627
ltoes -6.71173
69
root -2.94712 16.5886 -36.359 1.39872 -0.424747 -2.05254
lowerback 11.2491 2.2528 -1.87363
upperback -2.64185 2.84299 1.16363
thorax -9.31103 1.51521 1.75448
lowerneck -3.28097 -3.86444 -6.76638
upperneck 4.164 -5.13453 6.44348
head 2.31093 -2.52047 3.14675
rclavicle 1.8425e-014 5.18083e-015
rhumerus -32.3152 2.9094 -80.5865
rradius 30.0809
rwrist 2.79812
rhand -20.7885 -27.1586
rfingers 7.12502
rthumb 5.57854 -57.0652
lclavicle 1.8425e-014 5.18083e-015
lhumerus -26.1103 -4.69533 89.7778
lradius 24.83
lwrist -30.7122
lhand -28.8022 29.6502
lfingers 7.12502
lthumb -2.16065 59.619
rfemur -19.9778 -4.99234 13.8608
rtibia 46.0564
rfoot -24.4746 1.85284
rtoes -4.39369
lfemur -18.5755 5.26305 -8.97416
ltibia 42.3938
lfoot -20.1822 0.376934
ltoes -6.84622
70
root -2.9388 16.5847 -36.36 1.51727 -0.387455 -1.99527
lowerback 11.0953 2.21274 -1.86366
upperback -2.67763 2.79192 1.14694
thorax -9.25634 1.4898 1.7455
lowerneck -3.3397 -3.85444 -6.92617
upperneck 4.31521 -5.11952 6.52417
head 2.38055 -2.51311 3.2053
rclavicle 1.49089e-016 1.16786e-015
rhumerus -32.2131 3.00649 -80.5892
rradius 30.0611
rwrist 2.72645
rhand -20.7669 -27.1201
rfingers 7.12502
rthumb 5.59937 -57.0261
lclavicle 1.49089e-016 1.16786e-015
lhumerus -26.1243 -4.71374 89.7802
lradius 24.8834
lwrist -30.5334
lhand -28.8989 29.3873
lfingers 7.12502
lthumb -2.25407 59.3552
rfemur -20.1426 -5.09235 13.7703
rtibia 46.1345
rfoot -24.5121 1.91124
rtoes -4.42374
lfemur -18.7723 5.31165 -9.08077
ltibia 42.4654
lfoot -20.1957 0.356818
ltoes -6.88407
71
root -2.93569 16.5803 -36.3544 1.56207 -0.350562 -1.97831
lowerback 10.9718 2.20614 -1.8583
upperback -2.70219 2.78537 1.14086
thorax -9.21025 1.48637 1.74093
lowerneck -3.25891 -3.85741 -6.93814
upperneck 4.34501 -5.12813 6.5097
head 2.37607 -2.51931 3.20333
rclavicle 1.93848e-014 -1.57537e-014
rhumerus -32.28 2.99174 -80.581
rradius 30.1225
rwrist 2.82905
rhand -20.7364 -27.1851
rfingers 7.12502
rthumb 5.6289 -57.0903
lclavicle 1.93848e-014 -1.57537e-014
lhumerus -26.1287 -4.7216 89.7765
lradius 24.8583
lwrist -30.5865
lhand -28.839 29.4565
lfingers 7.12502
lthumb -2.19624 59.4249
rfemur -20.1965 -5.12501 13.7404
rtibia 46.209
rfoot -24.5568 1.9059
rtoes -4.3946
lfemur -18.8254 5.32743 -9.10033
ltibia 42.5263
lfoot -20.2611 0.223975
ltoes -6.55442
72
root -2.93719 16.58 -36.3394 1.49805 -0.352628 -1.93511
lowerback 10.9111 2.23592 -1.91015
upperback -2.70906 2.81755 1.12694
thorax -9.18596 1.50439 1.75099
lowerneck -3.0504 -3.87082 -6.81149
upperneck 4.25611 -5.1563 6.41247
head 2.30117 -2.53663 3.147
rclavicle 3.8068e-015 -8.64713e-015
rhumerus -32.3215 2.97698 -80.5677
rradius 30.0966
rwrist 2.87584
rhand -20.6294 -27.2212
rfingers 7.12502
rthumb 5.73213 -57.1237
lclavicle 3.8068e-015 -8.64713e-015
lhumerus -26.1543 -4.69474 89.7561
lradius 24.7821
lwrist -30.7292
lhand -28.7379 29.799
lfingers 7.12502
lthumb -2.09855 59.7684
rfemur -20.0968 -5.11001 13.6827
rtibia 46.2722
rfoot -24.6414 1.87099
rtoes -4.48066
lfemur -18.7575 5.45021 -9.14636
ltibia 42.5804
lfoot -20.349 0.241934
ltoes -6.94177
73
root -2.93327 16.5764 -36.3321 1.533 -0.327163 -1.9046
lowerback 10.7867 2.22193 -1.91293
upperback -2.73457 2.79996 1.11997
thorax -9.14018 1.49606 1.7522
lowerneck -2.97708 -3.8692 -6.81876
upperneck 4.29534 -5.15856 6.39236
head 2.30036 -2.53957 3.14239
rclavicle -1.34478e-014 -1.6201e-014
rhumerus -32.3275 3.04202 -80.5759
rradius 30.1121
rwrist 2.9381
rhand -20.6227 -27.292
rfingers 7.12502
rthumb 5.73867 -57.1942
lclavicle -1.34478e-014 -1.6201e-014
lhumerus -26.1715 -4.66412 89.7379
lradius 24.7614
lwrist -30.784
lhand -28.7966 29.6355
lfingers 7.12502
lthumb -2.15524 59.6043
rfemur -20.1324 -5.14723 13.6345
rtibia 46.3371
rfoot -24.7108 1.86448
rtoes -4.48055
lfemur -18.8131 5.51279 -9.19479
ltibia 42.6418
lfoot -20.4086 0.175984
ltoes -7.02976
74
root -2.92997 16.5717 -36.3251 1.5697 -0.320985 -1.88417
lowerback 10.6715 2.20997 -1.92912
upperback -2.76709 2.78349 1.11755
thorax -9.10838 1.48928 1.76513
lowerneck -2.8976 -3.85261 -6.82036
upperneck 4.31856 -5.14121 6.38059
head 2.29172 -2.53253 3.14043
rclavicle 3.20247e-014 1.44492e-014
rhumerus -32.3334 3.10345 -80.5836
rradius 30.1328
rwrist 2.9294
rhand -20.5887 -27.341
rfingers 7.12502
rthumb 5.77149 -57.2424
lclavicle 3.20247e-014 1.44492e-014
lhumerus -26.1969 -4.62205 89.7127
lradius 24.7355
lwrist -30.8078
lhand -28.7767 29.6045
lfingers 7.12502
lthumb -2.13607 59.5735
rfemur -20.1837 -5.14217 13.6051
rtibia 46.4021
rfoot -24.758 1.76403
rtoes -4.77706
lfemur -18.8554 5.5714 -9.22089
ltibia 42.7028
lfoot -20.4774 0.0736457
ltoes -6.76146
75
root -2.92584 16.5681 -36.3188 1.61151 -0.291615 -1.86418
lowerback 10.5431 2.20758 -1.90715
upperback -2.79213 2.78456 1.10578
thorax -9.05902 1.48841 1.74388
lowerneck -2.84503 -3.86024 -6.8318
upperneck 4.36984 -5.15468 6.35616
head 2.29958 -2.5409 3.13442
rclavicle 3.59327e-016 1.89964e-014
rhumerus -32.3471 3.12897 -80.5712
rradius 30.1871
rwrist 2.85171
rhand -20.5206 -27.4625
rfingers 7.12502
rthumb 5.8372 -57.3621
lclavicle 3.59327e-016 1.89964e-014
lhumerus -26.2128 -4.64043 89.7153
lradius 24.7235
lwrist -30.8017
lhand -28.7906 29.8046
lfingers 7.12502
lthumb -2.14946 59.7735
rfemur -20.2322 -5.18238 13.5646
rtibia 46.468
rfoot -24.8251 1.78797
rtoes -4.79745
lfemur -18.9079 5.59063 -9.24879
ltibia 42.7933
lfoot -20.5746 -0.0664834
ltoes -6.41576
76
root -2.92218 16.5655 -36.3123 1.66404 -0.252245 -1.84599
lowerback 10.4391 2.17906 -1.91223
upperback -2.82171 2.74763 1.10732
thorax -9.02912 1.4712 1.7582
lowerneck -2.84526 -3.86032 -6.8111
upperneck 4.41709 -5.15436 6.29623
head 2.31215 -2.54177 3.10981
rclavicle -6.31344e-014 -1.0051e-014
rhumerus -32.3032 3.17424 -80.5734
rradius 30.1793
rwrist 2.88244
rhand -20.54 -27.2901
rfingers 7.12502
rthumb 5.81843 -57.1902
lclavicle -6.31344e-014 -1.0051e-014
lhumerus -26.2048 -4.56579 89.6903
lradius 24.6986
lwrist -30.8118
lhand -28.786 29.8173
lfingers 7.12502
lthumb -2.145 59.7862
rfemur -20.2813 -5.2259 13.5353
rtibia 46.523
rfoot -24.8804 1.72487
rtoes -4.86987
lfemur -19.0262 5.64458 -9.2923
ltibia 42.8979
lfoot -20.6322 -0.066674
ltoes -6.64716
77
root -2.91869 16.561 -36.3047 1.68466 -0.24777 -1.90678
lowerback 10.3134 2.16894 -1.83433
upperback -2.84048 2.74838 1.12456
thorax -8.97313 1.46793 1.73645
lowerneck -2.76365 -3.85551 -6.80185
upperneck 4.44117 -5.15169 6.25152
head 2.30277 -2.54261 3.09386
rclavicle 6.37315e-016 7.62215e-015
rhumerus -32.3397 3.22465 -80.574
rradius 30.2691
rwrist 2.8031
rhand -20.5191 -27.2192
rfingers 7.12502
rthumb 5.83866 -57.1187
lclavicle 6.37315e-016 7.62215e-015
lhumerus -26.2391 -4.55752 89.681
lradius 24.7043
lwrist -30.7795
lhand -28.7525 29.9011
lfingers 7.12502
lthumb -2.11271 59.8704
rfemur -20.3005 -5.22678 13.5908
rtibia 46.5665
rfoot -24.9171 1.68137
rtoes -4.98082
lfemur -19.0889 5.75116 -9.23152
ltibia 43.0185
lfoot -20.7019 -0.129364
ltoes -6.71635
78
root -2.91562 16.5569 -36.2986 1.74211 -0.21751 -1.99031
lowerback 10.1943 2.14474 -1.7476
upperback -2.86632 2.73189 1.14972
thorax -8.92784 1.45623 1.72099
lowerneck -2.77772 -3.8438 -6.79801
upperneck 4.4983 -5.13645 6.23251
head 2.32238 -2.53524 3.08703
rclavicle -2.25457e-014 -5.15598e-015
rhumerus -32.3229 3.26036 -80.5833
rradius 30.321
rwrist 2.76265
rhand -20.5203 -27.2652
rfingers 7.12502
rthumb 5.83753 -57.1648
lclavicle -2.25457e-014 -5.15598e-015
lhumerus -26.2429 -4.51004 89.6523
lradius 24.7178
lwrist -30.787
lhand -28.7772 29.9695
lfingers 7.12502
lthumb -2.13652 59.9386
rfemur -20.3479 -5.21155 13.6802
rtibia 46.6069
rfoot -24.9647 1.57373
rtoes -5.25288
lfemur -19.2271 5.824 -9.15446
ltibia 43.1503
lfoot -20.7537 -0.138384
ltoes -6.99221
